{
  "accessors": {
    "accessor_index_0": {
      "bufferView": "bufferView_1",
      "byteOffset": 0,
      "byteStride": 0,
      "componentType": 5123,
      "count": 9702,
      "type": "SCALAR",
      "min": [
        0
      ],
      "max": [
        9701
      ]
    },
    "accessor_index_1": {
      "bufferView": "bufferView_1",
      "byteOffset": 19404,
      "byteStride": 0,
      "componentType": 5123,
      "count": 516,
      "type": "SCALAR",
      "min": [
        9702
      ],
      "max": [
        10217
      ]
    },
    "accessor_position": {
      "bufferView": "bufferView_0",
      "byteOffset": 0,
      "byteStride": 0,
      "componentType": 5126,
      "count": 3077,
      "min": [
        -9.829468727111816,
        -9.999999974752427e-7,
        -3.8007009029388428
      ],
      "max": [
        9.82943058013916,
        20.729005813598633,
        3.6609110832214355
      ],
      "type": "VEC3"
    },
    "accessor_normal": {
      "bufferView": "bufferView_0",
      "byteOffset": 36924,
      "byteStride": 0,
      "componentType": 5126,
      "count": 3077,
      "type": "VEC3",
      "min": [
        -0.9993565678596497,
        -1,
        -0.999677300453186
      ],
      "max": [
        0.9997855424880981,
        0.9999962449073792,
        1
      ]
    },
    "accessor_uv": {
      "bufferView": "bufferView_0",
      "byteOffset": 73848,
      "byteStride": 0,
      "componentType": 5126,
      "count": 3077,
      "type": "VEC2",
      "min": [
        0.00430000014603138,
        -0.9926000237464905
      ],
      "max": [
        0.9952999949455261,
        -0.008100000210106373
      ]
    }
  },
  "asset": {
    "generator": "OBJ2GLTF",
    "premultipliedAlpha": true,
    "profile": {
      "api": "WebGL",
      "version": "1.0"
    },
    "version": "1.0"
  },
  "buffers": {
    "buffer_0": {
      "type": "arraybuffer",
      "byteLength": 118900,
      "uri": "data:application/octet-stream;base64,"
    }
  },
  "bufferViews": {
    "bufferView_0": {
      "buffer": "buffer_0",
      "byteLength": 98464,
      "byteOffset": 0,
      "target": 34962
    },
    "bufferView_1": {
      "buffer": "buffer_0",
      "byteLength": 20436,
      "byteOffset": 98464,
      "target": 34963
    }
  },
  "images": {
    "NhoodN_pak-0000000271": {
      "uri": "data:image/png;base64,"
    },
    "NhoodN_pak-0000000270": {
      "uri": "data:image/png;base64,"
    }
  },
  "materials": {
    "material_Material_#102": {
      "name": "Material_#102",
      "extensions": {},
      "values": {
        "ambient": [
          0.2,
          0.2,
          0.2,
          1
        ],
        "diffuse": "texture_NhoodN_pak-0000000271",
        "emission": [
          0,
          0,
          0,
          1
        ],
        "specular": [
          0,
          0,
          0,
          1
        ],
        "shininess": 0,
        "transparency": 1
      },
      "technique": "technique0"
    },
    "material_Material_#107": {
      "name": "Material_#107",
      "extensions": {},
      "values": {
        "ambient": [
          0.2,
          0.2,
          0.2,
          1
        ],
        "diffuse": "texture_NhoodN_pak-0000000270",
        "emission": [
          0,
          0,
          0,
          1
        ],
        "specular": [
          0,
          0,
          0,
          1
        ],
        "shininess": 0,
        "transparency": 1
      },
      "technique": "technique0"
    }
  },
  "meshes": {
    "mesh_hugh": {
      "name": "hugh",
      "primitives": [
        {
          "attributes": {
            "POSITION": "accessor_position",
            "NORMAL": "accessor_normal",
            "TEXCOORD_0": "accessor_uv"
          },
          "indices": "accessor_index_0",
          "material": "material_Material_#102",
          "mode": 4
        },
        {
          "attributes": {
            "POSITION": "accessor_position",
            "NORMAL": "accessor_normal",
            "TEXCOORD_0": "accessor_uv"
          },
          "indices": "accessor_index_1",
          "material": "material_Material_#107",
          "mode": 4
        }
      ]
    }
  },
  "nodes": {
    "rootNode": {
      "children": [],
      "meshes": [
        "mesh_hugh"
      ],
      "matrix": [
        1,
        0,
        0,
        0,
        0,
        1,
        0,
        0,
        0,
        0,
        1,
        0,
        0,
        0,
        0,
        1
      ]
    }
  },
  "samplers": {
    "sampler_0": {
      "magFilter": 9729,
      "minFilter": 9986,
      "wrapS": 10497,
      "wrapT": 10497
    }
  },
  "scene": "scene_hugh",
  "scenes": {
    "scene_hugh": {
      "nodes": [
        "rootNode"
      ]
    }
  },
  "textures": {
    "texture_NhoodN_pak-0000000271": {
      "format": 6407,
      "internalFormat": 6407,
      "sampler": "sampler_0",
      "source": "NhoodN_pak-0000000271",
      "target": 3553,
      "type": 5121
    },
    "texture_NhoodN_pak-0000000270": {
      "format": 6407,
      "internalFormat": 6407,
      "sampler": "sampler_0",
      "source": "NhoodN_pak-0000000270",
      "target": 3553,
      "type": 5121
    }
  },
  "extensionsUsed": [],
  "animations": {},
  "cameras": {},
  "techniques": {
    "technique0": {
      "attributes": {
        "a_position": "position",
        "a_normal": "normal",
        "a_texcoord_0": "texcoord_0"
      },
      "parameters": {
        "modelViewMatrix": {
          "semantic": "MODELVIEW",
          "type": 35676
        },
        "projectionMatrix": {
          "semantic": "PROJECTION",
          "type": 35676
        },
        "normalMatrix": {
          "semantic": "MODELVIEWINVERSETRANSPOSE",
          "type": 35675
        },
        "ambient": {
          "type": 35666
        },
        "diffuse": {
          "type": 35678
        },
        "emission": {
          "type": 35666
        },
        "specular": {
          "type": 35666
        },
        "shininess": {
          "type": 5126
        },
        "transparency": {
          "type": 5126
        },
        "position": {
          "semantic": "POSITION",
          "type": 35665
        },
        "normal": {
          "semantic": "NORMAL",
          "type": 35665
        },
        "texcoord_0": {
          "semantic": "TEXCOORD_0",
          "type": 35664
        }
      },
      "program": "program0",
      "states": {
        "enable": [
          2884,
          2929
        ]
      },
      "uniforms": {
        "u_modelViewMatrix": "modelViewMatrix",
        "u_projectionMatrix": "projectionMatrix",
        "u_normalMatrix": "normalMatrix",
        "u_ambient": "ambient",
        "u_diffuse": "diffuse",
        "u_emission": "emission",
        "u_specular": "specular",
        "u_shininess": "shininess",
        "u_transparency": "transparency"
      }
    }
  },
  "programs": {
    "program0": {
      "attributes": [
        "a_position",
        "a_normal",
        "a_texcoord_0"
      ],
      "fragmentShader": "fragmentShader0",
      "vertexShader": "vertexShader0"
    }
  },
  "shaders": {
    "vertexShader0": {
      "type": 35633,
      "uri": "data:text/plain;base64,"
    },
    "fragmentShader0": {
      "type": 35632,
      "uri": "data:text/plain;base64,"
    }
  },
  "skins": {},
  "extensions": {}
}
