{
  "accessors": {
    "accessor_index_0": {
      "bufferView": "bufferView_1",
      "byteOffset": 0,
      "byteStride": 0,
      "componentType": 5123,
      "count": 360,
      "type": "SCALAR",
      "min": [
        0
      ],
      "max": [
        73
      ]
    },
    "accessor_index_1": {
      "bufferView": "bufferView_1",
      "byteOffset": 720,
      "byteStride": 0,
      "componentType": 5123,
      "count": 3708,
      "type": "SCALAR",
      "min": [
        74
      ],
      "max": [
        1143
      ]
    },
    "accessor_index_2": {
      "bufferView": "bufferView_1",
      "byteOffset": 8136,
      "byteStride": 0,
      "componentType": 5123,
      "count": 396,
      "type": "SCALAR",
      "min": [
        886
      ],
      "max": [
        1058
      ]
    },
    "accessor_position": {
      "bufferView": "bufferView_0",
      "byteOffset": 0,
      "byteStride": 0,
      "componentType": 5126,
      "count": 1144,
      "min": [
        -3.515252113342285,
        0.0060577392578125,
        -1.7261842489242554
      ],
      "max": [
        3.6139369010925293,
        8.064862251281738,
        1.882063627243042
      ],
      "type": "VEC3"
    },
    "accessor_normal": {
      "bufferView": "bufferView_0",
      "byteOffset": 13728,
      "byteStride": 0,
      "componentType": 5126,
      "count": 1144,
      "type": "VEC3",
      "min": [
        -1,
        -1,
        -0.9961433410644531
      ],
      "max": [
        1,
        0.9976630210876465,
        0.9995473623275757
      ]
    },
    "accessor_uv": {
      "bufferView": "bufferView_0",
      "byteOffset": 27456,
      "byteStride": 0,
      "componentType": 5126,
      "count": 1144,
      "type": "VEC2",
      "min": [
        0.0045449999161064625,
        -0.025210022926330566
      ],
      "max": [
        0.9939919710159302,
        1.0022449493408203
      ]
    }
  },
  "asset": {
    "generator": "OBJ2GLTF",
    "premultipliedAlpha": true,
    "profile": {
      "api": "WebGL",
      "version": "1.0"
    },
    "version": "1.0"
  },
  "buffers": {
    "buffer_0": {
      "type": "arraybuffer",
      "byteLength": 45536,
      "uri": "data:application/octet-stream;base64,"
    }
  },
  "bufferViews": {
    "bufferView_0": {
      "buffer": "buffer_0",
      "byteLength": 36608,
      "byteOffset": 0,
      "target": 34962
    },
    "bufferView_1": {
      "buffer": "buffer_0",
      "byteLength": 8928,
      "byteOffset": 36608,
      "target": 34963
    }
  },
  "images": {
    "Eyes": {
      "uri": "data:image/png;base64,"
    },
    "Body": {
      "uri": "data:image/png;base64,"
    },
    "Zip": {
      "uri": "data:image/png;base64,"
    }
  },
  "materials": {
    "material_Eyes": {
      "name": "Eyes",
      "extensions": {},
      "values": {
        "ambient": [
          0,
          0,
          0,
          1
        ],
        "diffuse": "texture_Eyes",
        "emission": [
          0,
          0,
          0,
          1
        ],
        "specular": [
          0,
          0,
          0,
          1
        ],
        "shininess": 10,
        "transparency": 1
      },
      "technique": "technique0"
    },
    "material_Body": {
      "name": "Body",
      "extensions": {},
      "values": {
        "ambient": [
          0,
          0,
          0,
          1
        ],
        "diffuse": "texture_Body",
        "emission": [
          0,
          0,
          0,
          1
        ],
        "specular": [
          0,
          0,
          0,
          1
        ],
        "shininess": 9.999999046326,
        "transparency": 1
      },
      "technique": "technique0"
    },
    "material_Zip": {
      "name": "Zip",
      "extensions": {},
      "values": {
        "ambient": [
          0,
          0,
          0,
          1
        ],
        "diffuse": "texture_Zip",
        "emission": [
          0,
          0,
          0,
          1
        ],
        "specular": [
          0,
          0,
          0,
          1
        ],
        "shininess": 9.999999046326,
        "transparency": 1
      },
      "technique": "technique0"
    }
  },
  "meshes": {
    "mesh_mysackboy.littlebigplanet.com - Sackboy": {
      "name": "mysackboy.littlebigplanet.com - Sackboy",
      "primitives": [
        {
          "attributes": {
            "POSITION": "accessor_position",
            "NORMAL": "accessor_normal",
            "TEXCOORD_0": "accessor_uv"
          },
          "indices": "accessor_index_0",
          "material": "material_Eyes",
          "mode": 4
        },
        {
          "attributes": {
            "POSITION": "accessor_position",
            "NORMAL": "accessor_normal",
            "TEXCOORD_0": "accessor_uv"
          },
          "indices": "accessor_index_1",
          "material": "material_Body",
          "mode": 4
        },
        {
          "attributes": {
            "POSITION": "accessor_position",
            "NORMAL": "accessor_normal",
            "TEXCOORD_0": "accessor_uv"
          },
          "indices": "accessor_index_2",
          "material": "material_Zip",
          "mode": 4
        }
      ]
    }
  },
  "nodes": {
    "rootNode": {
      "children": [],
      "meshes": [
        "mesh_mysackboy.littlebigplanet.com - Sackboy"
      ],
      "matrix": [
        1,
        0,
        0,
        0,
        0,
        1,
        0,
        0,
        0,
        0,
        1,
        0,
        0,
        0,
        0,
        1
      ]
    }
  },
  "samplers": {
    "sampler_0": {
      "magFilter": 9729,
      "minFilter": 9986,
      "wrapS": 10497,
      "wrapT": 10497
    }
  },
  "scene": "scene_mysackboy.littlebigplanet.com - Sackboy",
  "scenes": {
    "scene_mysackboy.littlebigplanet.com - Sackboy": {
      "nodes": [
        "rootNode"
      ]
    }
  },
  "textures": {
    "texture_Eyes": {
      "format": 6407,
      "internalFormat": 6407,
      "sampler": "sampler_0",
      "source": "Eyes",
      "target": 3553,
      "type": 5121
    },
    "texture_Body": {
      "format": 6407,
      "internalFormat": 6407,
      "sampler": "sampler_0",
      "source": "Body",
      "target": 3553,
      "type": 5121
    },
    "texture_Zip": {
      "format": 6407,
      "internalFormat": 6407,
      "sampler": "sampler_0",
      "source": "Zip",
      "target": 3553,
      "type": 5121
    }
  },
  "extensionsUsed": [],
  "animations": {},
  "cameras": {},
  "techniques": {
    "technique0": {
      "attributes": {
        "a_position": "position",
        "a_normal": "normal",
        "a_texcoord_0": "texcoord_0"
      },
      "parameters": {
        "modelViewMatrix": {
          "semantic": "MODELVIEW",
          "type": 35676
        },
        "projectionMatrix": {
          "semantic": "PROJECTION",
          "type": 35676
        },
        "normalMatrix": {
          "semantic": "MODELVIEWINVERSETRANSPOSE",
          "type": 35675
        },
        "ambient": {
          "type": 35666
        },
        "diffuse": {
          "type": 35678
        },
        "emission": {
          "type": 35666
        },
        "specular": {
          "type": 35666
        },
        "shininess": {
          "type": 5126
        },
        "transparency": {
          "type": 5126
        },
        "position": {
          "semantic": "POSITION",
          "type": 35665
        },
        "normal": {
          "semantic": "NORMAL",
          "type": 35665
        },
        "texcoord_0": {
          "semantic": "TEXCOORD_0",
          "type": 35664
        }
      },
      "program": "program0",
      "states": {
        "enable": [
          2884,
          2929
        ]
      },
      "uniforms": {
        "u_modelViewMatrix": "modelViewMatrix",
        "u_projectionMatrix": "projectionMatrix",
        "u_normalMatrix": "normalMatrix",
        "u_ambient": "ambient",
        "u_diffuse": "diffuse",
        "u_emission": "emission",
        "u_specular": "specular",
        "u_shininess": "shininess",
        "u_transparency": "transparency"
      }
    }
  },
  "programs": {
    "program0": {
      "attributes": [
        "a_position",
        "a_normal",
        "a_texcoord_0"
      ],
      "fragmentShader": "fragmentShader0",
      "vertexShader": "vertexShader0"
    }
  },
  "shaders": {
    "vertexShader0": {
      "type": 35633,
      "uri": "data:text/plain;base64,"
    },
    "fragmentShader0": {
      "type": 35632,
      "uri": "data:text/plain;base64,"
    }
  },
  "skins": {},
  "extensions": {}
}
